<?xml version="1.0" encoding="iso-8859-1"?>
<!-- Generator: Adobe Illustrator 21.0.0, SVG Export Plug-In . SVG Version: 6.00 Build 0)  -->
<svg version="1.1" id="Capa_1" xmlns="http://www.w3.org/2000/svg" xmlns:xlink="http://www.w3.org/1999/xlink" x="0px" y="0px"
	 viewBox="0 0 512 512" style="enable-background:new 0 0 512 512;" xml:space="preserve">
<path style="fill:#00AD00;" d="M390.926,321.577l-38.781,62.433c-12.305,19.81-18.812,42.613-18.812,65.936v61.535H178.667v-61.535
	c0-23.323-6.507-46.126-18.812-65.936l-38.781-62.433l46.386-45.268l41.266,6.138l19.121,45.348L256,382.134l28.153-54.34
	l19.121-45.348l41.266-6.138L390.926,321.577z"/>
<path style="fill:#009100;" d="M390.926,321.577l-38.781,62.433c-12.305,19.81-18.812,42.613-18.812,65.936v61.535H256V382.134
	l28.153-54.34l19.121-45.348l41.266-6.138L390.926,321.577z"/>
<path style="fill:#2DD729;" d="M512,247.767c0,50.947-41.456,92.402-92.402,92.402c-21.017,0-41.586-7.255-57.922-20.419
	c-9.94-8.014-18.093-18.023-23.961-29.231c-22.484,15.948-51.196,24.81-81.714,24.81s-59.23-8.862-81.714-24.81
	c-5.868,11.207-14.022,21.217-23.961,29.231c-16.337,13.163-36.905,20.419-57.922,20.419C41.456,340.169,0,298.713,0,247.767
	c0-20.239,6.437-39.46,18.592-55.577c8.902-11.806,20.658-21.367,33.921-27.754c-0.709-4.651-1.078-9.361-1.078-14.091
	c0-50.947,41.456-92.402,92.402-92.402c8.543,0,17.065,1.208,25.269,3.533c5.309-14.65,14.301-27.853,26.227-38.252
	C212.139,8.583,233.685,0.519,256,0.519c22.315,0,43.861,8.064,60.667,22.704c11.926,10.399,20.918,23.602,26.227,38.252
	c8.203-2.325,16.726-3.533,25.269-3.533c50.947,0,92.402,41.456,92.402,92.402c0,4.73-0.369,9.441-1.078,14.091
	c13.263,6.387,25.019,15.948,33.921,27.754C505.563,208.307,512,227.528,512,247.767z"/>
<path style="fill:#00AD00;" d="M512,247.767c0,50.947-41.456,92.402-92.402,92.402c-21.017,0-41.586-7.255-57.922-20.419
	c-9.94-8.014-18.093-18.023-23.961-29.231c-22.484,15.948-51.196,24.81-81.714,24.81V0.519c22.315,0,43.861,8.064,60.667,22.704
	c11.926,10.399,20.918,23.602,26.227,38.252c8.203-2.325,16.726-3.533,25.269-3.533c50.947,0,92.402,41.456,92.402,92.402
	c0,4.73-0.369,9.441-1.078,14.091c13.263,6.387,25.019,15.948,33.921,27.754C505.563,208.307,512,227.528,512,247.767z"/>
<path style="fill:#009100;" d="M345.235,187.45c-1.202-11.362-5.054-19.5-11.778-24.884c-11.557-9.251-28.662-7.747-28.831-7.727
	l-3.442-29.741c2.984-0.344,29.773-2.885,50.984,14.096c13.099,10.487,20.784,25.663,22.841,45.105L345.235,187.45z"/>
<path style="fill:#00AD00;" d="M166.745,187.621l-29.735-3.493c2.324-19.787,10.276-35.117,23.634-45.564
	c21.21-16.589,47.421-13.817,50.337-13.447l-3.772,29.702l0.102,0.012c-0.1-0.011-10.184-1.089-20.177,2.805
	C175.24,162.269,168.572,172.077,166.745,187.621z"/>
<g>
</g>
<g>
</g>
<g>
</g>
<g>
</g>
<g>
</g>
<g>
</g>
<g>
</g>
<g>
</g>
<g>
</g>
<g>
</g>
<g>
</g>
<g>
</g>
<g>
</g>
<g>
</g>
<g>
</g>
</svg>
